<?xml version="1.0" standalone="no"?>
<!DOCTYPE svg PUBLIC "-//W3C//DTD SVG 20010904//EN"
 "http://www.w3.org/TR/2001/REC-SVG-20010904/DTD/svg10.dtd">
<svg version="1.0" xmlns="http://www.w3.org/2000/svg"
 width="300.000000pt" height="303.000000pt" viewBox="0 0 300.000000 303.000000"
 preserveAspectRatio="xMidYMid meet">
<metadata>
Created by potrace 1.10, written by Peter Selinger 2001-2011
</metadata>
<g transform="translate(0.000000,303.000000) scale(0.100000,-0.100000)"
fill="#000000" stroke="none">
<path d="M310 1485 l0 -1235 202 0 c193 0 203 1 235 22 66 46 63 -18 63 1211
0 691 -4 1125 -10 1146 -10 35 -31 60 -67 80 -14 7 -92 11 -222 11 l-201 0 0
-1235z"/>
<path d="M1087 2702 c-16 -17 -17 -84 -17 -758 l0 -739 26 -100 c14 -55 35
-138 46 -185 12 -47 24 -88 28 -92 3 -5 18 38 32 95 15 56 38 146 53 200 l25
98 0 727 c0 848 11 772 -109 772 -53 0 -72 -4 -84 -18z"/>
<path d="M2101 2694 l-31 -26 0 -179 c0 -138 3 -177 13 -174 28 11 38 -11 35
-80 l-3 -69 -34 -8 c-113 -30 -191 -134 -191 -258 0 -74 11 -107 56 -167 26
-34 26 -35 -25 -148 -10 -22 -69 -157 -131 -300 -61 -143 -118 -273 -125 -290
-69 -154 -88 -205 -109 -291 -48 -188 -77 -316 -74 -318 2 -1 15 -7 30 -14 27
-11 29 -10 75 61 25 40 76 117 112 172 96 146 120 206 114 287 -6 75 16 130
68 169 55 42 69 62 103 144 72 176 179 415 186 415 4 0 81 -170 170 -377 90
-208 167 -382 171 -387 8 -8 163 47 183 65 9 8 -14 70 -84 224 -39 88 -32 70
-141 325 -51 118 -92 220 -92 225 0 6 17 37 37 69 32 54 36 67 36 131 0 128
-76 233 -191 263 l-34 8 0 75 c0 69 1 74 23 77 22 3 22 5 22 173 l0 171 -29
29 c-39 39 -96 40 -140 3z"/>
<path d="M2740 780 c-8 -5 -48 -21 -90 -36 -41 -15 -76 -28 -77 -29 -2 -1 13
-39 33 -86 97 -229 118 -259 181 -259 49 0 79 18 98 59 18 41 16 48 -47 191
-14 30 -33 75 -43 100 -24 59 -36 72 -55 60z"/>
</g>
</svg>
